<?xml version="1.0" encoding="UTF-8"?>
<svg id="Layer_1" data-name="Layer 1" xmlns="http://www.w3.org/2000/svg" viewBox="0 0 498.38 183.45">
  <defs>
    <style>
      .cls-1 {
        fill: #221f20;
      }
    </style>
  </defs>
  <g>
    <path class="cls-1" d="M240.57,136.14c0-2.26-1.37-3.31-2.82-3.31s-2.82,1.04-2.82,3.31,1.38,3.29,2.82,3.29,2.82-1.04,2.82-3.29M233.7,131.9h1.3v1.4c.58-1.03,1.74-1.56,3-1.56,1.95,0,3.81,1.34,3.81,4.4s-1.86,4.39-3.81,4.39c-1.26,0-2.41-.55-3-1.58v4.51h-1.3v-11.56Z"/>
    <path class="cls-1" d="M250.81,136.14c0-2.28-1.35-3.3-2.82-3.3s-2.83,1.03-2.83,3.3,1.35,3.29,2.83,3.29,2.82-1.01,2.82-3.29M243.93,136.14c0-3.01,1.97-4.4,4.07-4.4s4.07,1.38,4.07,4.4-1.97,4.4-4.07,4.4-4.07-1.38-4.07-4.4"/>
  </g>
  <polygon class="cls-1" points="253.61 131.9 254.86 131.9 256.8 139.03 256.87 139.03 259.13 131.9 260.29 131.9 262.57 139.03 262.63 139.03 264.55 131.9 265.82 131.9 263.39 140.37 261.91 140.37 259.71 133.63 257.5 140.37 256.02 140.37 253.61 131.9"/>
  <g>
    <path class="cls-1" d="M273.85,135.55c-.02-1.78-.98-2.79-2.54-2.79-1.48,0-2.56.9-2.69,2.79h5.23ZM267.37,136.15c0-3.08,1.79-4.41,3.95-4.41s3.78,1.37,3.78,4.2c0,.28-.02.44-.05.6h-6.43c.1,1.99,1.07,2.95,2.78,2.95,1.04,0,1.99-.34,2.39-1.5h1.19c-.55,1.87-1.99,2.54-3.6,2.54-2.33,0-4.02-1.4-4.02-4.38"/>
    <path class="cls-1" d="M277.54,131.9h1.3v1.89h.03c.23-.88,1.03-1.99,2.67-1.99.21,0,.44.02.63.08v1.11c-.21-.03-.41-.05-.62-.05-1.71,0-2.72,1.15-2.72,2.96v4.46h-1.3v-8.47Z"/>
    <path class="cls-1" d="M290.28,135.55c-.02-1.78-.98-2.79-2.54-2.79-1.48,0-2.56.9-2.69,2.79h5.23ZM283.81,136.15c0-3.08,1.79-4.41,3.96-4.41s3.78,1.37,3.78,4.2c0,.28-.02.44-.05.6h-6.43c.1,1.99,1.07,2.95,2.78,2.95,1.04,0,1.99-.34,2.39-1.5h1.19c-.55,1.87-1.99,2.54-3.6,2.54-2.33,0-4.02-1.4-4.02-4.38"/>
    <path class="cls-1" d="M300.51,136.14c0-2.26-1.38-3.3-2.82-3.3s-2.82,1.04-2.82,3.3,1.37,3.29,2.82,3.29,2.82-1.04,2.82-3.29M293.64,136.14c0-3.06,1.86-4.4,3.81-4.4,1.26,0,2.41.54,3,1.56v-4.33h1.3v11.4h-1.3v-1.42c-.59,1.03-1.74,1.58-3,1.58-1.95,0-3.81-1.35-3.81-4.4"/>
    <path class="cls-1" d="M316.2,136.14c0-2.26-1.37-3.31-2.82-3.31s-2.82,1.04-2.82,3.31,1.38,3.29,2.82,3.29,2.82-1.04,2.82-3.29M310.63,138.95v1.42h-1.3v-11.4h1.3v4.33c.58-1.03,1.74-1.56,3-1.56,1.95,0,3.81,1.34,3.81,4.4s-1.86,4.4-3.81,4.4c-1.25,0-2.41-.55-3-1.58"/>
    <path class="cls-1" d="M321.88,141.05c.18-.46.19-.75.05-1.09l-3.19-8.06h1.33l2.66,6.94,2.64-6.94h1.35l-3.65,9.15c-.8,1.97-1.81,2.65-3.47,2.44v-1.12c1.27.18,1.9-.36,2.28-1.32"/>
  </g>
  <polygon class="cls-1" points="333.61 128.97 336.05 128.97 336.05 138.25 341.3 138.25 341.3 140.37 333.61 140.37 333.61 128.97"/>
  <path class="cls-1" d="M350.78,136.43l-1.71-4.96h-.15l-1.71,4.96h3.57ZM347.43,128.97h3.14l4.12,11.4h-2.56l-.73-2.13h-4.8l-.73,2.13h-2.56l4.12-11.4Z"/>
  <path class="cls-1" d="M356.63,136.04v-7.07h2.46v6.89c0,1.69.85,2.56,2.25,2.56s2.23-.86,2.23-2.56v-6.89h2.46v7.07c0,3.04-1.92,4.49-4.69,4.49s-4.71-1.45-4.71-4.49"/>
  <polygon class="cls-1" points="369.01 128.97 371.55 128.97 376.14 136.46 376.19 136.46 376.19 128.97 378.64 128.97 378.64 140.37 376 140.37 371.51 133.03 371.46 133.03 371.46 140.37 369.01 140.37 369.01 128.97"/>
  <path class="cls-1" d="M381.38,134.67c0-3.68,2.08-5.84,5.39-5.84,2.49,0,4.49,1.27,4.72,4.1h-2.38c-.33-1.42-1.26-2-2.43-2-1.99,0-2.82,1.64-2.82,3.74s.81,3.76,2.82,3.76c1.17,0,2.1-.59,2.43-2.02h2.38c-.23,2.85-2.23,4.12-4.76,4.12-3.27,0-5.36-2.17-5.36-5.86"/>
  <polygon class="cls-1" points="401.03 135.68 396.57 135.68 396.57 140.37 394.13 140.37 394.13 128.97 396.57 128.97 396.57 133.66 401.03 133.66 401.03 128.97 403.47 128.97 403.47 140.37 401.03 140.37 401.03 135.68"/>
  <path class="cls-1" d="M413,132.78c0-1.03-.59-1.69-1.92-1.69h-2.08v3.37h2.08c1.34,0,1.92-.67,1.92-1.68M406.55,128.97h4.61c3.03,0,4.35,1.58,4.35,3.81s-1.32,3.79-4.35,3.79h-2.17v3.79h-2.44v-11.4Z"/>
  <path class="cls-1" d="M423.53,136.43l-1.71-4.96h-.15l-1.71,4.96h3.57ZM420.17,128.97h3.14l4.12,11.4h-2.56l-.73-2.13h-4.8l-.73,2.13h-2.56l4.12-11.4Z"/>
  <path class="cls-1" d="M437.07,134.67c0-2.51-.81-3.58-3.14-3.58h-1.63v7.17h1.63c2.33,0,3.14-1.08,3.14-3.58M429.86,128.97h4.32c3.55,0,5.39,2.04,5.39,5.7s-1.84,5.7-5.39,5.7h-4.32v-11.4Z"/>
  <rect class="cls-1" x="152.3" y="56.82" width="10.31" height="56.01"/>
  <g>
    <path class="cls-1" d="M234.12,73.23c-4.6,0-6.76.12-8.67.22-1.38.08-2.69.15-4.76.16l-7.32.22v39h10.31v-24.73c0-2.62,0-4.68.53-5.09.73-.56,3.47-.56,7.26-.56,2.84,0,6.62.84,6.62,8.12v22.25h10.31v-23.82c0-9.87-5.33-15.77-14.27-15.77"/>
    <path class="cls-1" d="M191.23,73.23c-4.6,0-6.76.12-8.67.22-1.38.08-2.69.15-4.76.16l-7.32.22v39h10.31v-24.73c0-2.62,0-4.68.53-5.09.73-.56,3.47-.56,7.26-.56,2.84,0,6.62.84,6.62,8.12v22.25h10.31v-23.82c0-9.87-5.33-15.77-14.27-15.77"/>
    <path class="cls-1" d="M273.53,104.29c-5.64,0-9.01-4.08-9.01-10.92s3.37-10.92,9.01-10.92,9.08,4.08,9.08,10.92-3.39,10.92-9.08,10.92M273.53,73.23c-9.45,0-18.98,6.23-18.98,20.14s9.53,20.14,18.98,20.14,19.05-6.23,19.05-20.14-9.57-20.14-19.05-20.14"/>
  </g>
  <polygon class="cls-1" points="313.49 100 303.9 73.92 293.2 73.92 307.94 112.83 318.97 112.83 333.78 73.92 323.09 73.92 313.49 100"/>
  <g>
    <path class="cls-1" d="M353.99,104.23c-4.16,0-9.01-2.84-9.01-10.85s4.85-10.85,9.01-10.85,9.08,2.84,9.08,10.85-4.89,10.85-9.08,10.85M362.73,76.61c-2.67-2.14-6.26-3.37-10.17-3.37-12.12,0-17.54,10.11-17.54,20.14,0,13.91,8.81,20.14,17.54,20.14,3.91,0,7.5-1.23,10.17-3.37v2.69h10.31v-38.91h-10.31v2.69Z"/>
    <path class="cls-1" d="M395.63,104.29c-2.69,0-3.28-.59-3.28-3.34v-18.16h7.03v-8.87h-7.03v-8.94h-10.31v37.14c0,7.32,4.04,11.19,11.67,11.19,1.71,0,3.35-.2,4.87-.6l1.27-.33v-8.44l-1.92.24c-.99.12-1.51.12-2.31.12"/>
    <path class="cls-1" d="M414.02,88.66c.95-4.34,3.75-6.62,8.19-6.62s7.2,2.33,7.84,6.62h-16.04ZM422.28,73.23c-13.74,0-18.64,10.44-18.64,20.2,0,12.38,7.25,20.07,18.91,20.07,8.67,0,14.65-4.21,16.91-11.86h-10.01c-1.32,2.06-3.52,3.05-6.83,3.05-5.06,0-7.87-2.37-8.73-7.44h25.79l.25-1.4c.17-.93.23-1.73.23-2.97,0-12.31-6.69-19.66-17.88-19.66"/>
  </g>
  <g>
    <polygon class="cls-1" points="403.18 62.57 405.9 62.57 405.9 45.43 403.18 45.79 403.18 62.57"/>
    <polygon class="cls-1" points="424.74 57.88 414.36 44.39 410.96 44.77 410.96 62.57 413.74 62.57 413.82 48.58 424.65 62.57 427.52 62.57 427.52 42.62 424.74 42.98 424.74 57.88"/>
    <polygon class="cls-1" points="455.8 38.94 450.48 57.78 445.36 40.37 442.56 40.66 437.52 57.68 433.6 41.83 430.83 42.19 436.03 62.57 438.75 62.57 443.99 45.04 449.23 62.57 451.97 62.57 458.79 38.55 455.8 38.94"/>
  </g>
  <path class="cls-1" d="M70.69,82.22l-3.74-3.74c-.53-.53-.53-1.39,0-1.92l24.71-24.71c.53-.53,1.39-.53,1.92,0l3.74,3.74c.53.53.53,1.39,0,1.92l-24.71,24.71c-.53.53-1.39.53-1.92,0ZM59.13,63.41l3.14-3.14c.53-.53.53-1.39,0-1.92l-3.14-3.14c-.53-.53-1.39-.53-1.92,0l-3.14,3.14c-.53.53-.53,1.39,0,1.92l3.14,3.14c.53.53,1.39.53,1.92,0ZM51.82,69.87l1.71-1.71c.53-.53.53-1.39,0-1.92l-1.71-1.71c-.53-.53-1.39-.53-1.92,0l-1.71,1.71c-.53.53-.53,1.39,0,1.92l1.71,1.71c.53.53,1.39.53,1.92,0ZM45.72,74.98l1.02-1.02c.44-.44.44-1.17,0-1.61l-1.02-1.02c-.44-.44-1.17-.44-1.61,0l-1.02,1.02c-.44.44-.44,1.17,0,1.61l1.02,1.02c.44.44,1.17.44,1.61,0ZM62.12,76.42l1.71-1.71c.53-.53.53-1.39,0-1.92l-1.71-1.71c-.53-.53-1.39-.53-1.92,0l-1.71,1.71c-.53.53-.53,1.39,0,1.92l1.71,1.71c.53.53,1.39.53,1.92,0ZM77.04,62.63l12.34-12.34c.53-.53.53-1.39,0-1.92l-3.13-3.13c-.53-.53-1.39-.53-1.92,0l-12.34,12.34c-.53.53-.53,1.39,0,1.92l3.13,3.13c.53.53,1.39.53,1.92,0ZM69.6,70.08l3.13-3.13c.53-.53.53-1.39,0-1.92l-3.13-3.13c-.53-.53-1.39-.53-1.92,0l-3.13,3.13c-.53.53-.53,1.39,0,1.92l3.13,3.13c.53.53,1.39.53,1.92,0ZM124.85,90.33l1.95-1.95c.53-.53.53-1.39,0-1.92l-1.8-1.8c-.53-.53-1.39-.53-1.92,0l-1.95,1.95c-.53.53-.53,1.39,0,1.92l1.8,1.8c.53.53,1.39.53,1.92,0ZM130.31,94.98l1.15-1.15c.45-.45.45-1.18,0-1.63l-1.03-1.03c-.45-.45-1.18-.45-1.63,0l-1.15,1.15c-.45.45-.45,1.18,0,1.63l1.03,1.03c.45.45,1.18.45,1.63,0ZM111.09,77.98l3.37-3.37c.53-.53.53-1.39,0-1.92l-13.47-13.47c-.53-.53-1.39-.53-1.92,0l-3.37,3.37c-.53.53-.53,1.39,0,1.92l13.47,13.47c.53.53,1.39.53,1.92,0ZM118.5,85.39l3.37-3.37c.53-.53.53-1.39,0-1.92l-3.16-3.16c-.53-.53-1.39-.53-1.92,0l-3.37,3.37c-.53.53-.53,1.39,0,1.92l3.16,3.16c.53.53,1.39.53,1.92,0ZM122.84,68.71l1.95-1.95c.53-.53.53-1.39,0-1.92l-1.8-1.8c-.53-.53-1.39-.53-1.92,0l-1.95,1.95c-.53.53-.53,1.39,0,1.92l1.8,1.8c.53.53,1.39.53,1.92,0ZM128.11,73.17l1.15-1.15c.45-.45.45-1.18,0-1.63l-1.03-1.03c-.45-.45-1.18-.45-1.63,0l-1.15,1.15c-.45.45-.45,1.18,0,1.63l1.03,1.03c.45.45,1.18.45,1.63,0ZM116.2,64.07l3.37-3.37c.53-.53.53-1.39,0-1.92l-3.16-3.16c-.53-.53-1.39-.53-1.92,0l-3.37,3.37c-.53.53-.53,1.39,0,1.92l3.16,3.16c.53.53,1.39.53,1.92,0ZM57.09,100.24c2.65,1.57,5.42,3.61,8.36,5.77,9.71,7.14,22.34,16.43,42.14,16.52.07,0,.14-.02.21-.05,3.39-1.63,6.54-3.65,9.42-6.01.34-.28.09-.83-.35-.76-23.3,3.32-36.8-6.6-47.76-14.66-3.06-2.25-5.96-4.38-8.87-6.11-5.9-3.5-12.51-4.45-18.19-4.4-.29,0-.5.28-.43.56.44,1.82.98,3.6,1.63,5.33.06.17.22.28.39.28,4.38.12,9.21,1,13.46,3.52ZM95.73,126.36c.48-.09.48-.78,0-.87-11.94-2.21-20.1-7.96-28.08-13.59-4.98-3.52-9.69-6.84-15.13-9.14-2.22-.94-4.43-1.54-6.58-1.88-.35-.06-.61.32-.45.63.68,1.31,1.41,2.58,2.2,3.82.06.09.15.16.25.18.99.27,1.99.61,2.98,1.03,5.03,2.13,9.56,5.33,14.36,8.71,6.03,4.25,12.45,8.78,20.68,11.79.04.02.09.03.14.03.43.01.87.03,1.31.03,2.84,0,5.62-.26,8.32-.75ZM40.72,86.43c.03.21.21.37.43.36,4.64-.22,11.05.13,17.37,2.63,4.3,1.71,8.52,4.91,12.98,8.29,8.95,6.79,19.69,14.95,36.32,14.95,3.57,0,7.4-.38,11.55-1.22,1.29-.26,2.51-.52,3.67-.77.09-.02.17-.07.24-.14,2.33-2.74,4.36-5.74,6.03-8.97.17-.33-.13-.71-.5-.62-2.93.71-6.57,1.54-11.08,2.45-19.84,4.04-30.73-4.23-41.27-12.22-4.92-3.74-9.57-7.26-14.92-9.38-7.66-3.04-15.28-3.48-20.82-3.21-.24.01-.42.2-.42.44-.01.32-.02.64-.02.96,0,2.19.16,4.35.45,6.46Z"/>
</svg>