<?xml version="1.0" encoding="UTF-8"?>
<svg id="Layer_1" data-name="Layer 1" xmlns="http://www.w3.org/2000/svg" viewBox="0 0 171.5 166.96">
 <defs>
  <style>.cls-1{fill:url(#Purple_Gradient);}</style>
  <linearGradient id="Purple_Gradient" data-name="Purple Gradient" x1="85.03" y1="127.11" x2="85.03" y2="44.85" gradientUnits="userSpaceOnUse">
   <stop offset="0" stop-color="#2a255a"/>
   <stop offset=".51" stop-color="#67539c"/>
   <stop offset="1" stop-color="#ece7f1"/>
  </linearGradient>
 </defs>
 <path class="cls-1" d="M69.69,82.22l-3.74-3.74c-.53-.53-.53-1.39,0-1.92l24.71-24.71c.53-.53,1.39-.53,1.92,0l3.74,3.74c.53.53.53,1.39,0,1.92l-24.71,24.71c-.53.53-1.39.53-1.92,0ZM58.13,63.41l3.14-3.14c.53-.53.53-1.39,0-1.92l-3.14-3.14c-.53-.53-1.39-.53-1.92,0l-3.14,3.14c-.53.53-.53,1.39,0,1.92l3.14,3.14c.53.53,1.39.53,1.92,0ZM50.82,69.87l1.71-1.71c.53-.53.53-1.39,0-1.92l-1.71-1.71c-.53-.53-1.39-.53-1.92,0l-1.71,1.71c-.53.53-.53,1.39,0,1.92l1.71,1.71c.53.53,1.39.53,1.92,0ZM44.72,74.98l1.02-1.02c.44-.44.44-1.17,0-1.61l-1.02-1.02c-.44-.44-1.17-.44-1.61,0l-1.02,1.02c-.44.44-.44,1.17,0,1.61l1.02,1.02c.44.44,1.17.44,1.61,0ZM61.12,76.42l1.71-1.71c.53-.53.53-1.39,0-1.92l-1.71-1.71c-.53-.53-1.39-.53-1.92,0l-1.71,1.71c-.53.53-.53,1.39,0,1.92l1.71,1.71c.53.53,1.39.53,1.92,0ZM76.04,62.63l12.34-12.34c.53-.53.53-1.39,0-1.92l-3.13-3.13c-.53-.53-1.39-.53-1.92,0l-12.34,12.34c-.53.53-.53,1.39,0,1.92l3.13,3.13c.53.53,1.39.53,1.92,0ZM68.6,70.08l3.13-3.13c.53-.53.53-1.39,0-1.92l-3.13-3.13c-.53-.53-1.39-.53-1.92,0l-3.13,3.13c-.53.53-.53,1.39,0,1.92l3.13,3.13c.53.53,1.39.53,1.92,0ZM123.85,90.33l1.95-1.95c.53-.53.53-1.39,0-1.92l-1.8-1.8c-.53-.53-1.39-.53-1.92,0l-1.95,1.95c-.53.53-.53,1.39,0,1.92l1.8,1.8c.53.53,1.39.53,1.92,0ZM129.31,94.98l1.15-1.15c.45-.45.45-1.18,0-1.63l-1.03-1.03c-.45-.45-1.18-.45-1.63,0l-1.15,1.15c-.45.45-.45,1.18,0,1.63l1.03,1.03c.45.45,1.18.45,1.63,0ZM110.09,77.98l3.37-3.37c.53-.53.53-1.39,0-1.92l-13.47-13.47c-.53-.53-1.39-.53-1.92,0l-3.37,3.37c-.53.53-.53,1.39,0,1.92l13.47,13.47c.53.53,1.39.53,1.92,0ZM117.5,85.39l3.37-3.37c.53-.53.53-1.39,0-1.92l-3.16-3.16c-.53-.53-1.39-.53-1.92,0l-3.37,3.37c-.53.53-.53,1.39,0,1.92l3.16,3.16c.53.53,1.39.53,1.92,0ZM121.84,68.71l1.95-1.95c.53-.53.53-1.39,0-1.92l-1.8-1.8c-.53-.53-1.39-.53-1.92,0l-1.95,1.95c-.53.53-.53,1.39,0,1.92l1.8,1.8c.53.53,1.39.53,1.92,0ZM127.11,73.17l1.15-1.15c.45-.45.45-1.18,0-1.63l-1.03-1.03c-.45-.45-1.18-.45-1.63,0l-1.15,1.15c-.45.45-.45,1.18,0,1.63l1.03,1.03c.45.45,1.18.45,1.63,0ZM115.2,64.07l3.37-3.37c.53-.53.53-1.39,0-1.92l-3.16-3.16c-.53-.53-1.39-.53-1.92,0l-3.37,3.37c-.53.53-.53,1.39,0,1.92l3.16,3.16c.53.53,1.39.53,1.92,0ZM56.09,100.24c2.65,1.57,5.42,3.61,8.36,5.77,9.71,7.14,22.34,16.43,42.14,16.52.07,0,.14-.02.21-.05,3.39-1.63,6.54-3.65,9.42-6.01.34-.28.09-.83-.35-.76-23.3,3.32-36.8-6.6-47.76-14.66-3.06-2.25-5.96-4.38-8.87-6.11-5.9-3.5-12.51-4.45-18.19-4.4-.29,0-.5.28-.43.56.44,1.82.98,3.6,1.63,5.33.06.17.22.28.39.28,4.38.12,9.21,1,13.46,3.52ZM94.73,126.36c.48-.09.48-.78,0-.87-11.94-2.21-20.1-7.96-28.08-13.59-4.98-3.52-9.69-6.84-15.13-9.14-2.22-.94-4.43-1.54-6.58-1.88-.35-.06-.61.32-.45.63.68,1.31,1.41,2.58,2.2,3.82.06.09.15.16.25.18.99.27,1.99.61,2.98,1.03,5.03,2.13,9.56,5.33,14.36,8.71,6.03,4.25,12.45,8.78,20.68,11.79.04.02.09.03.14.03.43.01.87.03,1.31.03,2.84,0,5.62-.26,8.32-.75ZM39.72,86.43c.03.21.21.37.43.36,4.64-.22,11.05.13,17.37,2.63,4.3,1.71,8.52,4.91,12.98,8.29,8.95,6.79,19.69,14.95,36.32,14.95,3.57,0,7.4-.38,11.55-1.22,1.29-.26,2.51-.52,3.67-.77.09-.02.17-.07.24-.14,2.33-2.74,4.36-5.74,6.03-8.97.17-.33-.13-.71-.5-.62-2.93.71-6.57,1.54-11.08,2.45-19.84,4.04-30.73-4.23-41.27-12.22-4.92-3.74-9.57-7.26-14.92-9.38-7.66-3.04-15.28-3.48-20.82-3.21-.24.01-.42.2-.42.44-.01.32-.02.64-.02.96,0,2.19.16,4.35.45,6.46Z"/>
</svg>
